<svg width="33" height="25" viewBox="0 0 33 25" fill="none" xmlns="http://www.w3.org/2000/svg">
<mask id="mask0_4_129" style="mask-type:alpha" maskUnits="userSpaceOnUse" x="-3" y="-2" width="39" height="29">
<path d="M31.777 -1.61115H1.3004C-0.679804 -1.61115 -2.28508 0.0743948 -2.28508 2.15361V22.8598C-2.28508 24.939 -0.679804 26.6245 1.3004 26.6245H31.777C33.7572 26.6245 35.3625 24.939 35.3625 22.8598V2.15361C35.3625 0.0743948 33.7572 -1.61115 31.777 -1.61115Z" fill="white"/>
</mask>
<g mask="url(#mask0_4_129)">
<path d="M31.777 -1.61115H1.3004C-0.679804 -1.61115 -2.28508 0.0743948 -2.28508 2.15361V22.8598C-2.28508 24.939 -0.679804 26.6245 1.3004 26.6245H31.777C33.7572 26.6245 35.3625 24.939 35.3625 22.8598V2.15361C35.3625 0.0743948 33.7572 -1.61115 31.777 -1.61115Z" fill="#22438B"/>
<path fill-rule="evenodd" clip-rule="evenodd" d="M3.09314 0.27124L-0.538956 0.320182L-0.492344 4.036L29.952 24.7949L33.6038 24.7252L33.5357 21.032L3.09314 0.27124Z" fill="white"/>
<path fill-rule="evenodd" clip-rule="evenodd" d="M1.3004 0.27124L-0.49234 2.15362L31.777 24.7422L33.5698 22.8598L1.3004 0.27124Z" fill="#C7152A"/>
<path fill-rule="evenodd" clip-rule="evenodd" d="M29.9843 0.27124H33.5698V4.036C33.5698 4.036 12.505 17.9581 3.12541 24.7949C3.01247 24.8777 -0.456485 24.8005 -0.456485 24.8005L-0.73436 21.2221L29.9843 0.27124Z" fill="white"/>
<path fill-rule="evenodd" clip-rule="evenodd" d="M31.8541 0.218506L33.5698 2.15359L1.3004 24.7421L-0.49234 22.8598L31.8541 0.218506Z" fill="#C7152A"/>
<path fill-rule="evenodd" clip-rule="evenodd" d="M12.0569 0.27124H21.0206V7.80076H33.5698V17.2127H21.0206V24.7422H12.0569V17.2127H-0.49234V7.80076H12.0569V0.27124Z" fill="white"/>
<path fill-rule="evenodd" clip-rule="evenodd" d="M13.8496 0.27124H19.2278V9.68314H33.5698V15.3303H19.2278V24.7422H13.8496V15.3303H-0.49234V9.68314H13.8496V0.27124Z" fill="#C7152A"/>
<path d="M31.777 -0.669983H1.3004C-0.184761 -0.669983 -1.38872 0.594172 -1.38872 2.15359V22.8598C-1.38872 24.4192 -0.184761 25.6833 1.3004 25.6833H31.777C33.2622 25.6833 34.4661 24.4192 34.4661 22.8598V2.15359C34.4661 0.594172 33.2622 -0.669983 31.777 -0.669983Z" stroke="black" stroke-opacity="0.1" stroke-width="2.01683"/>
</g>
</svg>
