<svg width="33" height="25" viewBox="0 0 33 25" fill="none" xmlns="http://www.w3.org/2000/svg">
<mask id="mask0_4_146" style="mask-type:alpha" maskUnits="userSpaceOnUse" x="0" y="0" width="33" height="25">
<path d="M29.6001 0.607727H3.47731C1.77999 0.607727 0.404037 2.05248 0.404037 3.83466V21.5828C0.404037 23.365 1.77999 24.8097 3.47731 24.8097H29.6001C31.2974 24.8097 32.6734 23.365 32.6734 21.5828V3.83466C32.6734 2.05248 31.2974 0.607727 29.6001 0.607727Z" fill="white"/>
</mask>
<g mask="url(#mask0_4_146)">
<path d="M29.6001 0.607727H3.47731C1.77999 0.607727 0.404037 2.05248 0.404037 3.83466V21.5828C0.404037 23.365 1.77999 24.8097 3.47731 24.8097H29.6001C31.2974 24.8097 32.6734 23.365 32.6734 21.5828V3.83466C32.6734 2.05248 31.2974 0.607727 29.6001 0.607727Z" fill="#CD0B20"/>
<path fill-rule="evenodd" clip-rule="evenodd" d="M0.404037 7.06158H32.6734V18.3559H0.404037V7.06158Z" fill="#FFCB00"/>
<path fill-rule="evenodd" clip-rule="evenodd" d="M14.2338 10.6467V14.7127C14.2338 15.8421 13.2012 16.7456 11.9288 16.7456H8.85555C7.58629 16.7424 6.5506 15.834 6.5506 14.7094V10.6435C6.5506 9.72059 7.23901 8.94936 8.18558 8.69927C8.47139 7.86027 9.35035 8.61214 10.3922 8.61214C11.4402 8.61214 12.313 7.86511 12.5988 8.70088C13.5423 8.95742 14.2338 9.73028 14.2338 10.6467Z" fill="#C8B47C"/>
<path fill-rule="evenodd" clip-rule="evenodd" d="M14.2338 11.902H15.7704V16.7424H14.2338V11.902ZM5.01396 11.902H6.5506V16.7424H5.01396V11.902Z" fill="#B5B5B5"/>
<path fill-rule="evenodd" clip-rule="evenodd" d="M14.2338 15.1289H15.7704V16.7424H14.2338V15.1289ZM5.01396 15.1289H6.5506V16.7424H5.01396V15.1289Z" fill="#165C96"/>
<path fill-rule="evenodd" clip-rule="evenodd" d="M14.2338 10.2885H15.7704V11.902H14.2338V10.2885ZM5.01396 10.2885H6.5506V11.902H5.01396V10.2885Z" fill="#A0790A"/>
<path fill-rule="evenodd" clip-rule="evenodd" d="M8.08722 10.2885H9.62386V12.7087H8.08722V10.2885ZM11.1605 13.5154H12.6971V15.9357H11.1605V13.5154Z" fill="#D20636"/>
<path fill-rule="evenodd" clip-rule="evenodd" d="M11.1605 10.2885H12.6971V12.7087H11.1605V10.2885Z" fill="#A18793"/>
<path fill-rule="evenodd" clip-rule="evenodd" d="M8.08722 13.5154H9.62385V15.9356H8.08722V13.5154Z" fill="#FFE100"/>
<path fill-rule="evenodd" clip-rule="evenodd" d="M9.62386 10.2885L8.08722 8.67505H12.6971L11.1605 10.2885H9.62386Z" fill="#B6161A"/>
<path fill-rule="evenodd" clip-rule="evenodd" d="M9.62386 7.06158H11.1605V8.67505H9.62386V7.06158Z" fill="#AC9300"/>
</g>
</svg>
