<svg width="32" height="33" viewBox="0 0 32 33" fill="none" xmlns="http://www.w3.org/2000/svg">
<g filter="url(#filter0_d_1_90)">
<rect x="8" y="6.5" width="16" height="16" rx="8" fill="#00ACEE"/>
<path d="M19.3313 12.2867C19.7048 12.0634 19.9842 11.7118 20.1175 11.2975C19.7665 11.5058 19.3825 11.6524 18.9821 11.7313C18.4269 11.144 17.5473 11.0011 16.8348 11.3824C16.1222 11.7637 15.7531 12.5748 15.9338 13.3625C14.4961 13.2903 13.1567 12.6112 12.2488 11.4942C11.7749 12.3114 12.0171 13.3562 12.8021 13.8817C12.5182 13.8725 12.2406 13.7957 11.9925 13.6575C11.9925 13.665 11.9925 13.6725 11.9925 13.68C11.9927 14.5313 12.5927 15.2646 13.4271 15.4333C13.1638 15.505 12.8876 15.5155 12.6196 15.4642C12.8543 16.1922 13.5252 16.691 14.29 16.7058C13.6566 17.203 12.8744 17.4726 12.0692 17.4713C11.9265 17.4715 11.7838 17.4632 11.6421 17.4467C12.4598 17.9721 13.4114 18.251 14.3833 18.25C15.7355 18.2593 17.035 17.7262 17.9911 16.77C18.9473 15.8138 19.4802 14.5143 19.4708 13.1621C19.4708 13.0846 19.469 13.0075 19.4654 12.9308C19.8156 12.6778 20.1178 12.3642 20.3579 12.005C20.0317 12.1496 19.6856 12.2446 19.3313 12.2867Z" fill="white"/>
</g>
<defs>
<filter id="filter0_d_1_90" x="0" y="0.5" width="32" height="32" filterUnits="userSpaceOnUse" color-interpolation-filters="sRGB">
<feFlood flood-opacity="0" result="BackgroundImageFix"/>
<feColorMatrix in="SourceAlpha" type="matrix" values="0 0 0 0 0 0 0 0 0 0 0 0 0 0 0 0 0 0 127 0" result="hardAlpha"/>
<feOffset dy="2"/>
<feGaussianBlur stdDeviation="4"/>
<feColorMatrix type="matrix" values="0 0 0 0 0 0 0 0 0 0 0 0 0 0 0 0 0 0 0.06 0"/>
<feBlend mode="normal" in2="BackgroundImageFix" result="effect1_dropShadow_1_90"/>
<feBlend mode="normal" in="SourceGraphic" in2="effect1_dropShadow_1_90" result="shape"/>
</filter>
</defs>
</svg>
