<svg width="17" height="18" viewBox="0 0 17 18" fill="none" xmlns="http://www.w3.org/2000/svg">
<circle cx="8.5" cy="9" r="6.375" stroke="black" stroke-width="1.41667" stroke-linecap="round" stroke-linejoin="round"/>
<path d="M9.20832 2.65906C8.96181 2.86652 8.73972 3.11136 8.55077 3.39186C7.45796 5.01413 7.88716 7.21513 9.50943 8.30794C9.63748 8.3942 9.76914 8.47098 9.90358 8.53843C11.3333 9.25583 11.8792 8.28894 12.6533 8.81039C13.1554 9.14864 13.2882 9.8299 12.95 10.332C12.5955 10.8582 12.0416 11.125 12.1375 11.9869C12.1916 12.4733 12.4904 12.8925 12.8777 13.25" stroke="black" stroke-width="1.41667" stroke-linecap="round" stroke-linejoin="round"/>
<path d="M2.83331 7.07336C3.59964 7.25986 4.30877 7.70221 4.8209 8.38088C5.36679 9.10429 5.59309 9.96927 5.52345 10.8065C5.48658 11.25 5.77577 11.6975 6.14789 11.9415C6.32769 12.0593 6.4906 12.2096 6.62753 12.3911C7.23388 13.1946 7.1129 14.3203 6.37498 14.9788" stroke="black" stroke-width="1.41667" stroke-linecap="round" stroke-linejoin="round"/>
</svg>
