<svg width="10" height="10" viewBox="0 0 10 10" fill="none" xmlns="http://www.w3.org/2000/svg">
<path d="M4.99998 8.75C4.4737 8.3011 3.98589 7.80897 3.54165 7.27875C2.87498 6.4825 2.08331 5.29667 2.08331 4.16667C2.08272 2.98648 2.79342 1.92225 3.88376 1.47058C4.9741 1.01892 6.22917 1.26885 7.06331 2.10375C7.61184 2.64984 7.91911 3.39266 7.91666 4.16667C7.91666 5.29667 7.12498 6.4825 6.45831 7.27875C6.01407 7.80897 5.52626 8.3011 4.99998 8.75ZM4.99998 2.91667C4.5534 2.91667 4.14074 3.15492 3.91745 3.54167C3.69416 3.92842 3.69416 4.40492 3.91745 4.79167C4.14074 5.17842 4.5534 5.41667 4.99998 5.41667C5.69034 5.41667 6.24998 4.85702 6.24998 4.16667C6.24998 3.47631 5.69034 2.91667 4.99998 2.91667Z" fill="#79819A"/>
</svg>
