<svg width="10" height="10" viewBox="0 0 10 10" fill="none" xmlns="http://www.w3.org/2000/svg">
<path d="M7.91564 8.33332C4.3608 8.33837 1.66289 5.60812 1.66669 2.08438C1.66669 1.85426 1.85324 1.66666 2.08336 1.66666H3.18309C3.38958 1.66666 3.56499 1.81838 3.59531 2.02263C3.66798 2.51216 3.81051 2.98873 4.01856 3.43779L4.06137 3.53021C4.12091 3.65871 4.08055 3.81139 3.9653 3.89369C3.62473 4.13691 3.49457 4.62648 3.75989 5.00848C4.09284 5.48785 4.51254 5.90746 4.9918 6.24025C5.37378 6.5055 5.86327 6.37536 6.10648 6.03485C6.18884 5.91954 6.34161 5.87916 6.47019 5.93872L6.56218 5.98134C7.01126 6.18937 7.48787 6.3319 7.97745 6.40456C8.18171 6.43487 8.33335 6.61028 8.33335 6.81677V7.91666C8.33335 8.14677 8.14635 8.33332 7.91623 8.33332L7.91564 8.33332Z" fill="#79819A"/>
</svg>
