<svg width="10" height="11" viewBox="0 0 10 11" fill="none" xmlns="http://www.w3.org/2000/svg">
<path d="M3.52709 9.05626C2.68452 9.05626 1.92492 8.54872 1.60243 7.77031C1.27994 6.9919 1.45806 6.09588 2.05376 5.5L2.93793 4.61583L3.52709 5.205L2.64334 6.08875C2.32753 6.40456 2.2042 6.86486 2.31979 7.29626C2.43538 7.72766 2.77235 8.06463 3.20375 8.18022C3.63515 8.29581 4.09545 8.17248 4.41126 7.85667L5.29501 6.97292L5.88418 7.5625L5.00043 8.44625C4.61046 8.83814 4.07995 9.05778 3.52709 9.05626ZM3.82168 7.2675L3.23251 6.67833L6.17876 3.73208L6.76793 4.32125L3.82209 7.26708L3.82168 7.2675ZM7.06293 6.38375L6.47334 5.79458L7.35709 4.91083C7.6772 4.59597 7.80384 4.13361 7.68886 3.69958C7.57388 3.26554 7.23494 2.92652 6.80093 2.81144C6.36692 2.69635 5.90453 2.82288 5.58959 3.14292L4.70543 4.02667L4.11626 3.4375L5.00043 2.55333C5.81504 1.74582 7.12917 1.7487 7.94024 2.55977C8.75131 3.37085 8.75419 4.68497 7.94668 5.49958L7.06293 6.38333V6.38375Z" fill="#79819A"/>
</svg>
