<svg width="35" height="35" viewBox="0 0 35 35" fill="none" xmlns="http://www.w3.org/2000/svg">
<circle cx="17.5471" cy="17.6935" r="12.8573" stroke="black" stroke-width="2.85718" stroke-linecap="round" stroke-linejoin="round"/>
<path d="M18.9757 4.90491C18.4785 5.32333 18.0306 5.81712 17.6495 6.38286C15.4455 9.65469 16.3111 14.0937 19.583 16.2978C19.8412 16.4717 20.1068 16.6266 20.3779 16.7626C23.2614 18.2095 24.3623 16.2594 25.9235 17.3111C26.9362 17.9933 27.2042 19.3673 26.522 20.38C25.8071 21.4413 24.69 21.9793 24.8833 23.7176C24.9924 24.6987 25.5951 25.5442 26.3761 26.2651" stroke="black" stroke-width="2.85718" stroke-linecap="round" stroke-linejoin="round"/>
<path d="M6.11839 13.8078C7.66396 14.1839 9.09415 15.0761 10.127 16.4448C11.228 17.9038 11.6844 19.6484 11.544 21.337C11.4696 22.2313 12.0528 23.134 12.8033 23.626C13.166 23.8637 13.4945 24.1668 13.7707 24.5328C14.9936 26.1534 14.7496 28.4237 13.2613 29.7519" stroke="black" stroke-width="2.85718" stroke-linecap="round" stroke-linejoin="round"/>
</svg>
