<svg width="65" height="65" viewBox="0 0 65 65" fill="none" xmlns="http://www.w3.org/2000/svg">
<g filter="url(#filter0_d_4_90)">
<rect x="16.404" y="12.2188" width="32.2694" height="32.2694" rx="16.1347" fill="#00ACEE"/>
<path d="M39.2573 23.8896C40.0106 23.4392 40.5743 22.7301 40.843 21.8946C40.1352 22.3146 39.3607 22.6105 38.5531 22.7694C37.4334 21.585 35.6594 21.2967 34.2223 22.0657C32.7852 22.8348 32.0408 24.4707 32.4051 26.0594C29.5056 25.9138 26.8042 24.5441 24.9731 22.2912C24.0175 23.9395 24.5058 26.0466 26.0891 27.1064C25.5165 27.088 24.9567 26.933 24.4563 26.6543C24.4563 26.6695 24.4563 26.6846 24.4563 26.6997C24.4566 28.4167 25.6667 29.8956 27.3496 30.2359C26.8185 30.3804 26.2615 30.4016 25.721 30.2981C26.1943 31.7664 27.5475 32.7723 29.0899 32.8023C27.8125 33.805 26.2348 34.3487 24.6109 34.346C24.323 34.3464 24.0354 34.3299 23.7495 34.2965C25.3986 35.3562 27.318 35.9186 29.2782 35.9166C32.0053 35.9354 34.6262 34.8602 36.5545 32.9317C38.4829 31.0032 39.5578 28.3823 39.5388 25.6552C39.5388 25.4988 39.5352 25.3434 39.5279 25.1888C40.2342 24.6783 40.8437 24.046 41.3279 23.3215C40.6699 23.6132 39.972 23.8046 39.2573 23.8896Z" fill="white"/>
</g>
<defs>
<filter id="filter0_d_4_90" x="0.269358" y="0.117801" width="64.5387" height="64.5387" filterUnits="userSpaceOnUse" color-interpolation-filters="sRGB">
<feFlood flood-opacity="0" result="BackgroundImageFix"/>
<feColorMatrix in="SourceAlpha" type="matrix" values="0 0 0 0 0 0 0 0 0 0 0 0 0 0 0 0 0 0 127 0" result="hardAlpha"/>
<feOffset dy="4.03367"/>
<feGaussianBlur stdDeviation="8.06734"/>
<feColorMatrix type="matrix" values="0 0 0 0 0 0 0 0 0 0 0 0 0 0 0 0 0 0 0.06 0"/>
<feBlend mode="normal" in2="BackgroundImageFix" result="effect1_dropShadow_4_90"/>
<feBlend mode="normal" in="SourceGraphic" in2="effect1_dropShadow_4_90" result="shape"/>
</filter>
</defs>
</svg>
