<svg width="16" height="17" viewBox="0 0 16 17" fill="none" xmlns="http://www.w3.org/2000/svg">
<rect y="0.5" width="16" height="16" rx="8" fill="white"/>
<path d="M8.29918 3C5.37315 3 3 5.37271 3 8.29918C3 10.6405 4.51822 12.6268 6.6242 13.3277C6.88872 13.3767 6.97439 13.2124 6.97439 13.0729V12.0863C5.50033 12.4069 5.19342 11.461 5.19342 11.461C4.95231 10.8485 4.60477 10.6856 4.60477 10.6856C4.12387 10.3566 4.64142 10.3637 4.64142 10.3637C5.17355 10.4007 5.45352 10.9099 5.45352 10.9099C5.92603 11.7198 6.69309 11.4858 6.99558 11.3502C7.04283 11.0079 7.18017 10.7739 7.33208 10.6419C6.15522 10.5072 4.91786 10.0528 4.91786 8.02274C4.91786 7.44381 5.12497 6.97129 5.46368 6.60035C5.40892 6.46655 5.22742 5.92736 5.51535 5.19784C5.51535 5.19784 5.96048 5.05564 6.97306 5.741C7.39567 5.62354 7.84875 5.5648 8.29918 5.5626C8.74961 5.5648 9.20313 5.62354 9.62663 5.741C10.6383 5.05564 11.0826 5.19784 11.0826 5.19784C11.3709 5.9278 11.1894 6.46699 11.1347 6.60035C11.4747 6.97129 11.6801 7.44425 11.6801 8.02274C11.6801 10.0581 10.4405 10.5063 9.26054 10.6374C9.45043 10.8017 9.62398 11.1241 9.62398 11.6187V13.0729C9.62398 13.2137 9.70876 13.3793 9.9777 13.3272C12.0819 12.6255 13.5984 10.6397 13.5984 8.29918C13.5984 5.37271 11.2257 3 8.29918 3Z" fill="#24292E"/>
</svg>
