<svg width="33" height="33" viewBox="0 0 33 33" fill="none" xmlns="http://www.w3.org/2000/svg">
<rect x="0.404037" y="0.0167847" width="32.2694" height="32.2694" rx="16.1347" fill="white"/>
<path d="M17.1421 5.05887C11.2408 5.05887 6.45454 9.84423 6.45454 15.7464C6.45454 20.4686 9.51653 24.4746 13.764 25.8881C14.2974 25.9869 14.4702 25.6556 14.4702 25.3742V23.3845C11.4973 24.0311 10.8783 22.1234 10.8783 22.1234C10.392 20.8881 9.6911 20.5594 9.6911 20.5594C8.7212 19.8959 9.76502 19.9101 9.76502 19.9101C10.8382 19.985 11.4029 21.0119 11.4029 21.0119C12.3559 22.6453 13.9029 22.1732 14.513 21.8998C14.6083 21.2096 14.8853 20.7375 15.1916 20.4712C12.8181 20.1996 10.3226 19.2831 10.3226 15.1889C10.3226 14.0213 10.7403 13.0683 11.4234 12.3202C11.3129 12.0503 10.9469 10.9629 11.5276 9.49154C11.5276 9.49154 12.4253 9.20476 14.4676 10.587C15.3199 10.3501 16.2337 10.2317 17.1421 10.2272C18.0506 10.2317 18.9652 10.3501 19.8194 10.587C21.8598 9.20476 22.7558 9.49154 22.7558 9.49154C23.3373 10.9638 22.9713 12.0512 22.8609 12.3202C23.5466 13.0683 23.9608 14.0222 23.9608 15.1889C23.9608 19.2938 21.4608 20.1978 19.081 20.4623C19.464 20.7937 19.814 21.4438 19.814 22.4413V25.3742C19.814 25.6583 19.985 25.9923 20.5274 25.8872C24.7713 24.472 27.8297 20.4668 27.8297 15.7464C27.8297 9.84423 23.0443 5.05887 17.1421 5.05887Z" fill="#24292E"/>
</svg>
