<svg width="33" height="34" viewBox="0 0 33 34" fill="none" xmlns="http://www.w3.org/2000/svg">
<rect x="0.404037" y="0.814758" width="32.2694" height="32.2694" rx="16.1347" fill="url(#paint0_radial_4_77)"/>
<rect x="0.404037" y="0.814758" width="32.2694" height="32.2694" rx="16.1347" fill="url(#paint1_radial_4_77)" fill-opacity="0.2"/>
<path d="M13.1781 16.9498C13.1781 15.0934 14.6827 13.588 16.5391 13.588C18.3956 13.588 19.9009 15.0934 19.9009 16.9498C19.9009 18.8063 18.3956 20.3116 16.5391 20.3116C14.6827 20.3116 13.1781 18.8063 13.1781 16.9498V16.9498ZM11.3608 16.9498C11.3608 19.8098 13.6791 22.1282 16.5391 22.1282C19.3991 22.1282 21.7174 19.8098 21.7174 16.9498C21.7174 14.0899 19.3991 11.7715 16.5391 11.7715C13.6791 11.7715 11.3609 14.0897 11.3609 16.9498H11.3608ZM20.7124 11.5662C20.7123 11.8056 20.7831 12.0396 20.916 12.2386C21.0489 12.4377 21.2379 12.5929 21.459 12.6845C21.6801 12.7762 21.9234 12.8003 22.1581 12.7537C22.3929 12.7071 22.6086 12.5919 22.7779 12.4227C22.9472 12.2536 23.0625 12.038 23.1093 11.8033C23.1561 11.5685 23.1322 11.3252 23.0407 11.104C22.9492 10.8829 22.7942 10.6938 22.5952 10.5608C22.3963 10.4277 22.1623 10.3566 21.923 10.3565H21.9225C21.6017 10.3567 21.294 10.4842 21.0671 10.711C20.8402 10.9378 20.7126 11.2454 20.7124 11.5662V11.5662ZM12.465 25.1585C11.4817 25.1138 10.9473 24.95 10.5922 24.8116C10.1214 24.6283 9.78544 24.41 9.43224 24.0573C9.07904 23.7046 8.8604 23.369 8.67791 22.8981C8.53947 22.5432 8.3757 22.0086 8.331 21.0254C8.28211 19.9624 8.27235 19.6431 8.27235 16.95C8.27235 14.2569 8.28292 13.9385 8.331 12.8746C8.37578 11.8914 8.54076 11.3579 8.67791 11.0019C8.86121 10.5311 9.07952 10.1951 9.43224 9.84191C9.78496 9.48871 10.1206 9.27007 10.5922 9.08758C10.9472 8.94914 11.4817 8.78537 12.465 8.74067C13.5279 8.69178 13.8473 8.68202 16.5391 8.68202C19.231 8.68202 19.5506 8.69243 20.6145 8.74084C21.5977 8.78561 22.1312 8.95059 22.4872 9.08775C22.9581 9.27024 23.294 9.48935 23.6472 9.84207C24.0004 10.1948 24.2182 10.5312 24.4015 11.002C24.54 11.357 24.7038 11.8916 24.7485 12.8748C24.7973 13.9387 24.8071 14.2571 24.8071 16.9502C24.8071 19.6432 24.7973 19.9617 24.7485 21.0255C24.7037 22.0088 24.5391 22.5432 24.4015 22.8983C24.2182 23.3691 23.9999 23.7051 23.6472 24.0575C23.2945 24.4099 22.9581 24.6285 22.4872 24.8118C22.1323 24.9502 21.5977 25.114 20.6145 25.1587C19.5515 25.2076 19.2322 25.2173 16.5391 25.2173C13.8461 25.2173 13.5276 25.2076 12.465 25.1587V25.1585ZM12.3815 6.92634C11.3079 6.97523 10.5743 7.14545 9.93364 7.39475C9.27056 7.65218 8.70849 7.99756 8.14722 8.55794C7.58595 9.11832 7.24146 9.68048 6.98402 10.3444C6.73473 10.9854 6.56451 11.7186 6.51562 12.7922C6.46592 13.8674 6.45454 14.2112 6.45454 16.9498C6.45454 19.6885 6.46592 20.0323 6.51562 21.1075C6.56451 22.1812 6.73473 22.9143 6.98402 23.5553C7.24146 24.2184 7.58603 24.7816 8.14722 25.3417C8.70841 25.9019 9.26976 26.2468 9.93364 26.5049C10.5755 26.7542 11.3079 26.9245 12.3815 26.9734C13.4573 27.0222 13.8005 27.0344 16.5391 27.0344C19.2778 27.0344 19.6215 27.0231 20.6968 26.9734C21.7704 26.9245 22.5035 26.7542 23.1446 26.5049C23.8077 26.2468 24.3698 25.9021 24.931 25.3417C25.4923 24.7814 25.8361 24.2184 26.0942 23.5553C26.3435 22.9143 26.5145 22.1811 26.5626 21.1075C26.6115 20.0315 26.6229 19.6885 26.6229 16.9498C26.6229 14.2112 26.6115 13.8674 26.5626 12.7922C26.5137 11.7185 26.3435 10.985 26.0942 10.3444C25.8361 9.68128 25.4914 9.11921 24.931 8.55794C24.3706 7.99667 23.8077 7.65218 23.1454 7.39475C22.5035 7.14545 21.7704 6.97442 20.6976 6.92634C19.6222 6.87721 19.2786 6.86526 16.5403 6.86526C13.8021 6.86526 13.4577 6.87664 12.3819 6.92634" fill="white"/>
<defs>
<radialGradient id="paint0_radial_4_77" cx="0" cy="0" r="1" gradientUnits="userSpaceOnUse" gradientTransform="translate(2.49248 32.3772) scale(40.9701)">
<stop offset="0.09" stop-color="#FA8F21"/>
<stop offset="0.78" stop-color="#D82D7E"/>
</radialGradient>
<radialGradient id="paint1_radial_4_77" cx="0" cy="0" r="1" gradientUnits="userSpaceOnUse" gradientTransform="translate(16.5387 32.0757) scale(25.2104)">
<stop offset="0.713542" stop-color="#8C3AAA" stop-opacity="0"/>
<stop offset="1" stop-color="#8C3AAA"/>
</radialGradient>
</defs>
</svg>
